<svg xmlns="http://www.w3.org/2000/svg" viewBox="0 0 900 130" width="900" height="130" role="img" aria-label="Tech stack: Python, TensorFlow, scikit-learn, Pandas, NumPy, LangGraph, RAG, Streamlit, FastAPI, TypeScript, Power BI">
<title>Tech stack: Python, TensorFlow, scikit-learn, Pandas, NumPy, LangGraph, RAG, Streamlit, FastAPI, TypeScript, Power BI</title>
<defs><linearGradient id="mf" x1="0" y1="0" x2="1" y2="0"><stop offset="0" stop-color="#fff" stop-opacity="0"/><stop offset=".07" stop-color="#fff"/><stop offset=".93" stop-color="#fff"/><stop offset="1" stop-color="#fff" stop-opacity="0"/></linearGradient><mask id="mm"><rect width="900" height="130" fill="url(#mf)"/></mask></defs>
<rect x=".5" y=".5" width="899" height="129" rx="14" fill="#050505" stroke="#1d2a22"/><g mask="url(#mm)"><g><animateTransform attributeName="transform" type="translate" from="0.0 0" to="-1077.6 0" dur="24s" repeatCount="indefinite"/><rect x="0.0" y="14" width="96.4" height="38" rx="19" fill="#0b110d" stroke="#1d2a22"/><circle cx="20.0" cy="33" r="5" fill="#3776AB"/><text x="34.0" y="38" font-family="ui-monospace,SFMono-Regular,Menlo,Consolas,'Liberation Mono',monospace" font-size="13" fill="#e8f5ee">Python</text><rect x="110.4" y="14" width="130.0" height="38" rx="19" fill="#0b110d" stroke="#1d2a22"/><circle cx="130.4" cy="33" r="5" fill="#FF6F00"/><text x="144.4" y="38" font-family="ui-monospace,SFMono-Regular,Menlo,Consolas,'Liberation Mono',monospace" font-size="13" fill="#e8f5ee">TensorFlow</text><rect x="254.4" y="14" width="146.8" height="38" rx="19" fill="#0b110d" stroke="#1d2a22"/><circle cx="274.4" cy="33" r="5" fill="#F7931E"/><text x="288.4" y="38" font-family="ui-monospace,SFMono-Regular,Menlo,Consolas,'Liberation Mono',monospace" font-size="13" fill="#e8f5ee">scikit-learn</text><rect x="415.2" y="14" width="96.4" height="38" rx="19" fill="#0b110d" stroke="#1d2a22"/><circle cx="435.2" cy="33" r="5" fill="#a78bfa"/><text x="449.2" y="38" font-family="ui-monospace,SFMono-Regular,Menlo,Consolas,'Liberation Mono',monospace" font-size="13" fill="#e8f5ee">Pandas</text><rect x="525.6" y="14" width="88.0" height="38" rx="19" fill="#0b110d" stroke="#1d2a22"/><circle cx="545.6" cy="33" r="5" fill="#4DABCF"/><text x="559.6" y="38" font-family="ui-monospace,SFMono-Regular,Menlo,Consolas,'Liberation Mono',monospace" font-size="13" fill="#e8f5ee">NumPy</text><rect x="627.6" y="14" width="121.6" height="38" rx="19" fill="#0b110d" stroke="#1d2a22"/><circle cx="647.6" cy="33" r="5" fill="#3ddc84"/><text x="661.6" y="38" font-family="ui-monospace,SFMono-Regular,Menlo,Consolas,'Liberation Mono',monospace" font-size="13" fill="#e8f5ee">LangGraph</text><rect x="763.2" y="14" width="71.2" height="38" rx="19" fill="#0b110d" stroke="#1d2a22"/><circle cx="783.2" cy="33" r="5" fill="#9dffc2"/><text x="797.2" y="38" font-family="ui-monospace,SFMono-Regular,Menlo,Consolas,'Liberation Mono',monospace" font-size="13" fill="#e8f5ee">RAG</text><rect x="848.4" y="14" width="130.0" height="38" rx="19" fill="#0b110d" stroke="#1d2a22"/><circle cx="868.4" cy="33" r="5" fill="#ff4d9d"/><text x="882.4" y="38" font-family="ui-monospace,SFMono-Regular,Menlo,Consolas,'Liberation Mono',monospace" font-size="13" fill="#e8f5ee">LSTM / RNN</text><rect x="992.4" y="14" width="71.2" height="38" rx="19" fill="#0b110d" stroke="#1d2a22"/><circle cx="1012.4" cy="33" r="5" fill="#00d9ff"/><text x="1026.4" y="38" font-family="ui-monospace,SFMono-Regular,Menlo,Consolas,'Liberation Mono',monospace" font-size="13" fill="#e8f5ee">NLP</text><rect x="1077.6" y="14" width="96.4" height="38" rx="19" fill="#0b110d" stroke="#1d2a22"/><circle cx="1097.6" cy="33" r="5" fill="#3776AB"/><text x="1111.6" y="38" font-family="ui-monospace,SFMono-Regular,Menlo,Consolas,'Liberation Mono',monospace" font-size="13" fill="#e8f5ee">Python</text><rect x="1188.0" y="14" width="130.0" height="38" rx="19" fill="#0b110d" stroke="#1d2a22"/><circle cx="1208.0" cy="33" r="5" fill="#FF6F00"/><text x="1222.0" y="38" font-family="ui-monospace,SFMono-Regular,Menlo,Consolas,'Liberation Mono',monospace" font-size="13" fill="#e8f5ee">TensorFlow</text><rect x="1332.0" y="14" width="146.8" height="38" rx="19" fill="#0b110d" stroke="#1d2a22"/><circle cx="1352.0" cy="33" r="5" fill="#F7931E"/><text x="1366.0" y="38" font-family="ui-monospace,SFMono-Regular,Menlo,Consolas,'Liberation Mono',monospace" font-size="13" fill="#e8f5ee">scikit-learn</text><rect x="1492.8" y="14" width="96.4" height="38" rx="19" fill="#0b110d" stroke="#1d2a22"/><circle cx="1512.8" cy="33" r="5" fill="#a78bfa"/><text x="1526.8" y="38" font-family="ui-monospace,SFMono-Regular,Menlo,Consolas,'Liberation Mono',monospace" font-size="13" fill="#e8f5ee">Pandas</text><rect x="1603.2" y="14" width="88.0" height="38" rx="19" fill="#0b110d" stroke="#1d2a22"/><circle cx="1623.2" cy="33" r="5" fill="#4DABCF"/><text x="1637.2" y="38" font-family="ui-monospace,SFMono-Regular,Menlo,Consolas,'Liberation Mono',monospace" font-size="13" fill="#e8f5ee">NumPy</text><rect x="1705.2" y="14" width="121.6" height="38" rx="19" fill="#0b110d" stroke="#1d2a22"/><circle cx="1725.2" cy="33" r="5" fill="#3ddc84"/><text x="1739.2" y="38" font-family="ui-monospace,SFMono-Regular,Menlo,Consolas,'Liberation Mono',monospace" font-size="13" fill="#e8f5ee">LangGraph</text><rect x="1840.8" y="14" width="71.2" height="38" rx="19" fill="#0b110d" stroke="#1d2a22"/><circle cx="1860.8" cy="33" r="5" fill="#9dffc2"/><text x="1874.8" y="38" font-family="ui-monospace,SFMono-Regular,Menlo,Consolas,'Liberation Mono',monospace" font-size="13" fill="#e8f5ee">RAG</text><rect x="1926.0" y="14" width="130.0" height="38" rx="19" fill="#0b110d" stroke="#1d2a22"/><circle cx="1946.0" cy="33" r="5" fill="#ff4d9d"/><text x="1960.0" y="38" font-family="ui-monospace,SFMono-Regular,Menlo,Consolas,'Liberation Mono',monospace" font-size="13" fill="#e8f5ee">LSTM / RNN</text><rect x="2070.0" y="14" width="71.2" height="38" rx="19" fill="#0b110d" stroke="#1d2a22"/><circle cx="2090.0" cy="33" r="5" fill="#00d9ff"/><text x="2104.0" y="38" font-family="ui-monospace,SFMono-Regular,Menlo,Consolas,'Liberation Mono',monospace" font-size="13" fill="#e8f5ee">NLP</text><rect x="2155.2" y="14" width="96.4" height="38" rx="19" fill="#0b110d" stroke="#1d2a22"/><circle cx="2175.2" cy="33" r="5" fill="#3776AB"/><text x="2189.2" y="38" font-family="ui-monospace,SFMono-Regular,Menlo,Consolas,'Liberation Mono',monospace" font-size="13" fill="#e8f5ee">Python</text><rect x="2265.6" y="14" width="130.0" height="38" rx="19" fill="#0b110d" stroke="#1d2a22"/><circle cx="2285.6" cy="33" r="5" fill="#FF6F00"/><text x="2299.6" y="38" font-family="ui-monospace,SFMono-Regular,Menlo,Consolas,'Liberation Mono',monospace" font-size="13" fill="#e8f5ee">TensorFlow</text><rect x="2409.6" y="14" width="146.8" height="38" rx="19" fill="#0b110d" stroke="#1d2a22"/><circle cx="2429.6" cy="33" r="5" fill="#F7931E"/><text x="2443.6" y="38" font-family="ui-monospace,SFMono-Regular,Menlo,Consolas,'Liberation Mono',monospace" font-size="13" fill="#e8f5ee">scikit-learn</text><rect x="2570.4" y="14" width="96.4" height="38" rx="19" fill="#0b110d" stroke="#1d2a22"/><circle cx="2590.4" cy="33" r="5" fill="#a78bfa"/><text x="2604.4" y="38" font-family="ui-monospace,SFMono-Regular,Menlo,Consolas,'Liberation Mono',monospace" font-size="13" fill="#e8f5ee">Pandas</text><rect x="2680.8" y="14" width="88.0" height="38" rx="19" fill="#0b110d" stroke="#1d2a22"/><circle cx="2700.8" cy="33" r="5" fill="#4DABCF"/><text x="2714.8" y="38" font-family="ui-monospace,SFMono-Regular,Menlo,Consolas,'Liberation Mono',monospace" font-size="13" fill="#e8f5ee">NumPy</text><rect x="2782.8" y="14" width="121.6" height="38" rx="19" fill="#0b110d" stroke="#1d2a22"/><circle cx="2802.8" cy="33" r="5" fill="#3ddc84"/><text x="2816.8" y="38" font-family="ui-monospace,SFMono-Regular,Menlo,Consolas,'Liberation Mono',monospace" font-size="13" fill="#e8f5ee">LangGraph</text><rect x="2918.4" y="14" width="71.2" height="38" rx="19" fill="#0b110d" stroke="#1d2a22"/><circle cx="2938.4" cy="33" r="5" fill="#9dffc2"/><text x="2952.4" y="38" font-family="ui-monospace,SFMono-Regular,Menlo,Consolas,'Liberation Mono',monospace" font-size="13" fill="#e8f5ee">RAG</text><rect x="3003.6" y="14" width="130.0" height="38" rx="19" fill="#0b110d" stroke="#1d2a22"/><circle cx="3023.6" cy="33" r="5" fill="#ff4d9d"/><text x="3037.6" y="38" font-family="ui-monospace,SFMono-Regular,Menlo,Consolas,'Liberation Mono',monospace" font-size="13" fill="#e8f5ee">LSTM / RNN</text><rect x="3147.6" y="14" width="71.2" height="38" rx="19" fill="#0b110d" stroke="#1d2a22"/><circle cx="3167.6" cy="33" r="5" fill="#00d9ff"/><text x="3181.6" y="38" font-family="ui-monospace,SFMono-Regular,Menlo,Consolas,'Liberation Mono',monospace" font-size="13" fill="#e8f5ee">NLP</text></g><g><animateTransform attributeName="transform" type="translate" from="-1161.6 0" to="0.0 0" dur="26s" repeatCount="indefinite"/><rect x="0.0" y="72" width="121.6" height="38" rx="19" fill="#0b110d" stroke="#1d2a22"/><circle cx="20.0" cy="91" r="5" fill="#FF4B4B"/><text x="34.0" y="96" font-family="ui-monospace,SFMono-Regular,Menlo,Consolas,'Liberation Mono',monospace" font-size="13" fill="#e8f5ee">Streamlit</text><rect x="135.6" y="72" width="104.8" height="38" rx="19" fill="#0b110d" stroke="#1d2a22"/><circle cx="155.6" cy="91" r="5" fill="#009688"/><text x="169.6" y="96" font-family="ui-monospace,SFMono-Regular,Menlo,Consolas,'Liberation Mono',monospace" font-size="13" fill="#e8f5ee">FastAPI</text><rect x="254.4" y="72" width="130.0" height="38" rx="19" fill="#0b110d" stroke="#1d2a22"/><circle cx="274.4" cy="91" r="5" fill="#3178C6"/><text x="288.4" y="96" font-family="ui-monospace,SFMono-Regular,Menlo,Consolas,'Liberation Mono',monospace" font-size="13" fill="#e8f5ee">TypeScript</text><rect x="398.4" y="72" width="113.2" height="38" rx="19" fill="#0b110d" stroke="#1d2a22"/><circle cx="418.4" cy="91" r="5" fill="#F2C811"/><text x="432.4" y="96" font-family="ui-monospace,SFMono-Regular,Menlo,Consolas,'Liberation Mono',monospace" font-size="13" fill="#e8f5ee">Power BI</text><rect x="525.6" y="72" width="88.0" height="38" rx="19" fill="#0b110d" stroke="#1d2a22"/><circle cx="545.6" cy="91" r="5" fill="#21A366"/><text x="559.6" y="96" font-family="ui-monospace,SFMono-Regular,Menlo,Consolas,'Liberation Mono',monospace" font-size="13" fill="#e8f5ee">Excel</text><rect x="627.6" y="72" width="104.8" height="38" rx="19" fill="#0b110d" stroke="#1d2a22"/><circle cx="647.6" cy="91" r="5" fill="#F37626"/><text x="661.6" y="96" font-family="ui-monospace,SFMono-Regular,Menlo,Consolas,'Liberation Mono',monospace" font-size="13" fill="#e8f5ee">Jupyter</text><rect x="746.4" y="72" width="71.2" height="38" rx="19" fill="#0b110d" stroke="#1d2a22"/><circle cx="766.4" cy="91" r="5" fill="#F05032"/><text x="780.4" y="96" font-family="ui-monospace,SFMono-Regular,Menlo,Consolas,'Liberation Mono',monospace" font-size="13" fill="#e8f5ee">Git</text><rect x="831.6" y="72" width="96.4" height="38" rx="19" fill="#0b110d" stroke="#1d2a22"/><circle cx="851.6" cy="91" r="5" fill="#9ca3af"/><text x="865.6" y="96" font-family="ui-monospace,SFMono-Regular,Menlo,Consolas,'Liberation Mono',monospace" font-size="13" fill="#e8f5ee">Vercel</text><rect x="942.0" y="72" width="205.6" height="38" rx="19" fill="#0b110d" stroke="#1d2a22"/><circle cx="962.0" cy="91" r="5" fill="#3ddc84"/><text x="976.0" y="96" font-family="ui-monospace,SFMono-Regular,Menlo,Consolas,'Liberation Mono',monospace" font-size="13" fill="#e8f5ee">Multi-Agent Systems</text><rect x="1161.6" y="72" width="121.6" height="38" rx="19" fill="#0b110d" stroke="#1d2a22"/><circle cx="1181.6" cy="91" r="5" fill="#FF4B4B"/><text x="1195.6" y="96" font-family="ui-monospace,SFMono-Regular,Menlo,Consolas,'Liberation Mono',monospace" font-size="13" fill="#e8f5ee">Streamlit</text><rect x="1297.2" y="72" width="104.8" height="38" rx="19" fill="#0b110d" stroke="#1d2a22"/><circle cx="1317.2" cy="91" r="5" fill="#009688"/><text x="1331.2" y="96" font-family="ui-monospace,SFMono-Regular,Menlo,Consolas,'Liberation Mono',monospace" font-size="13" fill="#e8f5ee">FastAPI</text><rect x="1416.0" y="72" width="130.0" height="38" rx="19" fill="#0b110d" stroke="#1d2a22"/><circle cx="1436.0" cy="91" r="5" fill="#3178C6"/><text x="1450.0" y="96" font-family="ui-monospace,SFMono-Regular,Menlo,Consolas,'Liberation Mono',monospace" font-size="13" fill="#e8f5ee">TypeScript</text><rect x="1560.0" y="72" width="113.2" height="38" rx="19" fill="#0b110d" stroke="#1d2a22"/><circle cx="1580.0" cy="91" r="5" fill="#F2C811"/><text x="1594.0" y="96" font-family="ui-monospace,SFMono-Regular,Menlo,Consolas,'Liberation Mono',monospace" font-size="13" fill="#e8f5ee">Power BI</text><rect x="1687.2" y="72" width="88.0" height="38" rx="19" fill="#0b110d" stroke="#1d2a22"/><circle cx="1707.2" cy="91" r="5" fill="#21A366"/><text x="1721.2" y="96" font-family="ui-monospace,SFMono-Regular,Menlo,Consolas,'Liberation Mono',monospace" font-size="13" fill="#e8f5ee">Excel</text><rect x="1789.2" y="72" width="104.8" height="38" rx="19" fill="#0b110d" stroke="#1d2a22"/><circle cx="1809.2" cy="91" r="5" fill="#F37626"/><text x="1823.2" y="96" font-family="ui-monospace,SFMono-Regular,Menlo,Consolas,'Liberation Mono',monospace" font-size="13" fill="#e8f5ee">Jupyter</text><rect x="1908.0" y="72" width="71.2" height="38" rx="19" fill="#0b110d" stroke="#1d2a22"/><circle cx="1928.0" cy="91" r="5" fill="#F05032"/><text x="1942.0" y="96" font-family="ui-monospace,SFMono-Regular,Menlo,Consolas,'Liberation Mono',monospace" font-size="13" fill="#e8f5ee">Git</text><rect x="1993.2" y="72" width="96.4" height="38" rx="19" fill="#0b110d" stroke="#1d2a22"/><circle cx="2013.2" cy="91" r="5" fill="#9ca3af"/><text x="2027.2" y="96" font-family="ui-monospace,SFMono-Regular,Menlo,Consolas,'Liberation Mono',monospace" font-size="13" fill="#e8f5ee">Vercel</text><rect x="2103.6" y="72" width="205.6" height="38" rx="19" fill="#0b110d" stroke="#1d2a22"/><circle cx="2123.6" cy="91" r="5" fill="#3ddc84"/><text x="2137.6" y="96" font-family="ui-monospace,SFMono-Regular,Menlo,Consolas,'Liberation Mono',monospace" font-size="13" fill="#e8f5ee">Multi-Agent Systems</text><rect x="2323.2" y="72" width="121.6" height="38" rx="19" fill="#0b110d" stroke="#1d2a22"/><circle cx="2343.2" cy="91" r="5" fill="#FF4B4B"/><text x="2357.2" y="96" font-family="ui-monospace,SFMono-Regular,Menlo,Consolas,'Liberation Mono',monospace" font-size="13" fill="#e8f5ee">Streamlit</text><rect x="2458.8" y="72" width="104.8" height="38" rx="19" fill="#0b110d" stroke="#1d2a22"/><circle cx="2478.8" cy="91" r="5" fill="#009688"/><text x="2492.8" y="96" font-family="ui-monospace,SFMono-Regular,Menlo,Consolas,'Liberation Mono',monospace" font-size="13" fill="#e8f5ee">FastAPI</text><rect x="2577.6" y="72" width="130.0" height="38" rx="19" fill="#0b110d" stroke="#1d2a22"/><circle cx="2597.6" cy="91" r="5" fill="#3178C6"/><text x="2611.6" y="96" font-family="ui-monospace,SFMono-Regular,Menlo,Consolas,'Liberation Mono',monospace" font-size="13" fill="#e8f5ee">TypeScript</text><rect x="2721.6" y="72" width="113.2" height="38" rx="19" fill="#0b110d" stroke="#1d2a22"/><circle cx="2741.6" cy="91" r="5" fill="#F2C811"/><text x="2755.6" y="96" font-family="ui-monospace,SFMono-Regular,Menlo,Consolas,'Liberation Mono',monospace" font-size="13" fill="#e8f5ee">Power BI</text><rect x="2848.8" y="72" width="88.0" height="38" rx="19" fill="#0b110d" stroke="#1d2a22"/><circle cx="2868.8" cy="91" r="5" fill="#21A366"/><text x="2882.8" y="96" font-family="ui-monospace,SFMono-Regular,Menlo,Consolas,'Liberation Mono',monospace" font-size="13" fill="#e8f5ee">Excel</text><rect x="2950.8" y="72" width="104.8" height="38" rx="19" fill="#0b110d" stroke="#1d2a22"/><circle cx="2970.8" cy="91" r="5" fill="#F37626"/><text x="2984.8" y="96" font-family="ui-monospace,SFMono-Regular,Menlo,Consolas,'Liberation Mono',monospace" font-size="13" fill="#e8f5ee">Jupyter</text><rect x="3069.6" y="72" width="71.2" height="38" rx="19" fill="#0b110d" stroke="#1d2a22"/><circle cx="3089.6" cy="91" r="5" fill="#F05032"/><text x="3103.6" y="96" font-family="ui-monospace,SFMono-Regular,Menlo,Consolas,'Liberation Mono',monospace" font-size="13" fill="#e8f5ee">Git</text><rect x="3154.8" y="72" width="96.4" height="38" rx="19" fill="#0b110d" stroke="#1d2a22"/><circle cx="3174.8" cy="91" r="5" fill="#9ca3af"/><text x="3188.8" y="96" font-family="ui-monospace,SFMono-Regular,Menlo,Consolas,'Liberation Mono',monospace" font-size="13" fill="#e8f5ee">Vercel</text><rect x="3265.2" y="72" width="205.6" height="38" rx="19" fill="#0b110d" stroke="#1d2a22"/><circle cx="3285.2" cy="91" r="5" fill="#3ddc84"/><text x="3299.2" y="96" font-family="ui-monospace,SFMono-Regular,Menlo,Consolas,'Liberation Mono',monospace" font-size="13" fill="#e8f5ee">Multi-Agent Systems</text></g></g>
</svg>
